<?xml version="1.0" encoding="utf-8"?>
<svg xmlns="http://www.w3.org/2000/svg" xmlns:xlink="http://www.w3.org/1999/xlink" style="margin: auto; background: none; display: block; shape-rendering: auto;" width="233px" height="233px" viewBox="0 0 100 100" preserveAspectRatio="xMidYMid">
<g transform="translate(50 50)">
<g>
<animateTransform attributeName="transform" type="rotate" values="0;51.42857142857143" keyTimes="0;1" dur="0.21052631578947367s" repeatCount="indefinite"></animateTransform><path d="M19.487175269905077 -4.5 L40.48717526990508 -4.5 L40.48717526990508 4.5 L19.487175269905077 4.5 A20 20 0 0 1 15.668296718925664 12.429983022019913 L15.668296718925664 12.429983022019913 L28.761582557959066 28.84844415384854 L21.725099215746795 34.45985237057714 L8.631813376713392 18.041391238748517 A20 20 0 0 1 0.05087116358853923 19.99993530301324 L0.05087116358853923 19.99993530301324 L-4.622068449494062 40.47342145883154 L-13.39641965913048 38.470733053224706 L-8.723480046047879 17.997246897406406 A20 20 0 0 1 -15.60486141551338 12.509528376506513 L-15.60486141551338 12.509528376506513 L-34.52520764146418 21.621086897975232 L-38.43016129352221 13.512367086853459 L-19.50981506757141 4.400808565384738 A20 20 0 0 1 -19.50981506757141 -4.400808565384733 L-19.50981506757141 -4.400808565384733 L-38.43016129352221 -13.512367086853452 L-34.525207641464185 -21.62108689797523 L-15.604861415513385 -12.50952837650651 A20 20 0 0 1 -8.723480046047882 -17.997246897406406 L-8.723480046047882 -17.997246897406406 L-13.396419659130489 -38.470733053224706 L-4.622068449494072 -40.47342145883154 L0.05087116358853434 -19.99993530301324 A20 20 0 0 1 8.631813376713389 -18.041391238748517 L8.631813376713389 -18.041391238748517 L21.72509921574679 -34.45985237057715 L28.761582557959063 -28.848444153848547 L15.66829671892566 -12.429983022019915 A20 20 0 0 1 19.487175269905073 -4.500000000000007 M0 -23A23 23 0 1 0 0 23 A23 23 0 1 0 0 -23" fill="#ff6b08"></path></g></g>
<!-- [ldio] generated by https://loading.io/ --></svg>